<?xml version="1.0" ?><!DOCTYPE svg  PUBLIC '-//W3C//DTD SVG 1.1//EN'  'http://www.w3.org/Graphics/SVG/1.1/DTD/svg11.dtd'><svg enable-background="new 0 0 24 24" height="24px" id="Layer_1" version="1.1" viewBox="0 0 24 24" width="24px" xml:space="preserve" xmlns="http://www.w3.org/2000/svg" xmlns:xlink="http://www.w3.org/1999/xlink"><g><path d="M15,9h1c0-2.2-1.8-4-4-4v1C13.7,6,15,7.3,15,9z"/><path d="M24,12c0-2.8-2.2-5-5-5c-0.1,0-0.2,0-0.3,0c-0.9-2.9-3.5-5-6.7-5C9.6,2,7.5,3.2,6.2,5C6.2,5,6.1,5,6,5c-3.3,0-6,2.7-6,6   c0,2.5,1.5,4.6,3.7,5.5v0C3.3,17.3,3,18.1,3,19c0,2.8,2.2,5,5,5h10c3.3,0,6-2.7,6-6c0-1.2-0.3-2.2-0.9-3.1C23.7,14,24,13.1,24,12z    M22.5,14C22.5,14,22.5,14,22.5,14C22.5,14,22.5,14,22.5,14z M2,11c0-0.3,0-0.5,0.1-0.8c0-0.1,0-0.2,0.1-0.2c0-0.2,0.1-0.3,0.1-0.5   c0-0.1,0.1-0.2,0.1-0.3C2.5,9.1,2.5,9,2.6,8.9c0.1-0.1,0.1-0.2,0.2-0.3C2.9,8.5,3,8.4,3.1,8.3C3.1,8.2,3.2,8.1,3.3,8   C3.4,8,3.5,7.9,3.6,7.8c0.1-0.1,0.2-0.2,0.3-0.2c0.1,0,0.2-0.1,0.2-0.1c0.1-0.1,0.3-0.1,0.4-0.2c0.1,0,0.1,0,0.2-0.1   C5.2,7.1,5.6,7,6,7c0.5,0,0.9,0.1,1.3,0.2c0.7-1.7,2.2-3,4.1-3.2c0,0,0.1,0,0.1,0c0.2,0,0.3,0,0.5,0c1.1,0,2.1,0.4,2.9,1   c0,0,0,0,0,0c0.9,0.6,1.5,1.5,1.8,2.6c0.1,0.2,0.1,0.4,0.2,0.6C17,8.5,17,8.7,17,9h2c1.7,0,3,1.3,3,3c0,0.5-0.1,0.9-0.3,1.3   c-1-0.8-2.3-1.3-3.7-1.3c-2.7,0-5.1,1.8-5.8,4.4C11.3,14.9,9.8,14,8,14c-1.1,0-2,0.3-2.9,0.9C3.3,14.5,2,12.9,2,11z M4.3,15.6   C4.3,15.6,4.3,15.6,4.3,15.6C4.3,15.6,4.3,15.6,4.3,15.6z M18,22h-4.5H12H8c-1.7,0-3-1.3-3-3s1.3-3,3-3c1.3,0,2.4,0.8,2.8,2H14   c0-2.2,1.8-4,4-4s4,1.8,4,4S20.2,22,18,22z"/><path d="M18,15L18,15v1c1.1,0,2,0.9,2,2h1C21,16.3,19.7,15,18,15z"/></g></svg>