<?xml version="1.0" ?><!DOCTYPE svg  PUBLIC '-//W3C//DTD SVG 1.1//EN'  'http://www.w3.org/Graphics/SVG/1.1/DTD/svg11.dtd'><svg enable-background="new 0 0 24 24" height="24px" id="Layer_1" version="1.1" viewBox="0 0 24 24" width="24px" xml:space="preserve" xmlns="http://www.w3.org/2000/svg" xmlns:xlink="http://www.w3.org/1999/xlink"><path d="M14,12c0-3.7,2-6.9,5-8.7c0.7-0.4,1.4-0.7,2.2-0.9c-0.7-0.5-1.4-0.9-2.2-1.3C17.5,0.4,15.8,0,14,0C7.4,0,2,5.4,2,12  s5.4,12,12,12c1.8,0,3.5-0.4,5-1.1c0.8-0.4,1.5-0.8,2.2-1.3c-0.8-0.2-1.5-0.5-2.2-0.9C16,18.9,14,15.7,14,12z M14,22  C8.5,22,4,17.5,4,12S8.5,2,14,2c1,0,1.9,0.1,2.8,0.4C13.9,4.6,12,8.1,12,12s1.9,7.4,4.8,9.6C15.9,21.9,15,22,14,22z"/></svg>