<?xml version="1.0" ?><!DOCTYPE svg  PUBLIC '-//W3C//DTD SVG 1.1//EN'  'http://www.w3.org/Graphics/SVG/1.1/DTD/svg11.dtd'><svg enable-background="new 0 0 24 24" height="24px" id="Layer_1" version="1.1" viewBox="0 0 24 24" width="24px" xml:space="preserve" xmlns="http://www.w3.org/2000/svg" xmlns:xlink="http://www.w3.org/1999/xlink"><path d="M23.1,11H22v-1c0-0.6-0.4-1-1-1s-1,0.4-1,1v1h-4.1c-0.1-0.4-0.2-0.7-0.4-1l2.9-2.9l0.7,0.7c0.4,0.4,1,0.4,1.4,0s0.4-1,0-1.4  l-0.7-0.7l0.8-0.8c0.4-0.4,0.4-0.9,0-1.3l-0.1-0.1c-0.4-0.4-0.9-0.4-1.3,0l-0.8,0.8l-0.7-0.7c-0.4-0.4-1-0.4-1.4,0  c-0.4,0.4-0.4,1,0,1.4l0.7,0.7L14,8.6c-0.3-0.2-0.7-0.3-1-0.4V4h1c0.6,0,1-0.4,1-1c0-0.6-0.4-1-1-1h-1V0.9C13,0.4,12.6,0,12.1,0  l-0.2,0C11.4,0,11,0.4,11,0.9L11,2h-1C9.4,2,9,2.4,9,3c0,0.6,0.4,1,1,1h1v4.1c-0.4,0.1-0.7,0.2-1,0.4L7.1,5.6l0.7-0.7  c0.4-0.4,0.4-1,0-1.4s-1-0.4-1.4,0L5.6,4.2L4.9,3.4c-0.4-0.4-0.9-0.4-1.3,0L3.4,3.6c-0.4,0.4-0.4,0.9,0,1.3l0.8,0.8L3.5,6.3  c-0.4,0.4-0.4,1,0,1.4c0.4,0.4,1,0.4,1.4,0L5.6,7L8.6,10c-0.2,0.3-0.3,0.7-0.4,1H4v-1c0-0.6-0.4-1-1-1s-1,0.4-1,1v1H0.9  C0.4,11,0,11.4,0,11.9v0.2C0,12.6,0.4,13,0.9,13H2v1c0,0.6,0.4,1,1,1s1-0.4,1-1v-1h4.1c0.1,0.4,0.2,0.7,0.4,1L5.6,17l-0.7-0.7  c-0.4-0.4-1-0.4-1.4,0c-0.4,0.4-0.4,1,0,1.4l0.7,0.7l-0.8,0.8c-0.4,0.4-0.4,0.9,0,1.3l0.1,0.1c0.4,0.4,0.9,0.4,1.3,0l0.8-0.8  l0.7,0.7c0.4,0.4,1,0.4,1.4,0c0.4-0.4,0.4-1,0-1.4l-0.7-0.7l2.9-2.9c0.3,0.2,0.7,0.3,1,0.4V20h-1c-0.6,0-1,0.4-1,1c0,0.6,0.4,1,1,1  h1l0,1.1c0,0.5,0.4,0.9,0.9,0.9l0.2,0c0.5,0,0.9-0.4,0.9-0.9V22l1,0c0.6,0,1-0.4,1-1c0-0.6-0.4-1-1-1h-1v-4.1c0.4-0.1,0.7-0.2,1-0.4  l2.9,2.9l-0.7,0.7c-0.4,0.4-0.4,1,0,1.4c0.4,0.4,1,0.4,1.4,0l0.7-0.7l0.8,0.8c0.4,0.4,0.9,0.4,1.3,0l0.1-0.1c0.4-0.4,0.4-0.9,0-1.3  l-0.8-0.8l0.7-0.7c0.4-0.4,0.4-1,0-1.4c-0.4-0.4-1-0.4-1.4,0L18.4,17L15.4,14c0.2-0.3,0.3-0.7,0.4-1H20v1c0,0.6,0.4,1,1,1s1-0.4,1-1  v-1h1.1c0.5,0,0.9-0.4,0.9-0.9v-0.2C24,11.4,23.6,11,23.1,11z M10,12c0-1.1,0.9-2,2-2s2,0.9,2,2s-0.9,2-2,2S10,13.1,10,12z"/></svg>